<mxfile host="drawio-plugin" modified="2022-11-05T10:27:22.579Z" agent="5.0 (X11; Linux x86_64) AppleWebKit/537.36 (KHTML, like Gecko) Chrome/98.0.4758.102 Safari/537.36" etag="qV6C6rMwSXZbohbho-Pu" version="15.5.4" type="embed" pages="2"><diagram id="LAWP7Q3Ea5RS2r_GDeiX" name="new feed system"><mxGraphModel dx="1277" dy="1279" grid="1" gridSize="10" guides="1" tooltips="1" connect="1" arrows="1" fold="1" page="1" pageScale="1" pageWidth="850" pageHeight="1100" background="none" math="0" shadow="0"><root><mxCell id="0"/><mxCell id="1" parent="0"/><mxCell id="VZ_Q3QNnJid0dUCNUunO-25" style="edgeStyle=none;rounded=1;orthogonalLoop=1;jettySize=auto;html=1;entryX=0.033;entryY=0.75;entryDx=0;entryDy=0;entryPerimeter=0;dashed=1;endArrow=open;endFill=0;" edge="1" parent="1" source="5" target="VZ_Q3QNnJid0dUCNUunO-24"><mxGeometry relative="1" as="geometry"/></mxCell><mxCell id="VZ_Q3QNnJid0dUCNUunO-29" value="&amp;lt;&amp;lt;extend&amp;gt;&amp;gt;" style="edgeLabel;html=1;align=center;verticalAlign=middle;resizable=0;points=[];" vertex="1" connectable="0" parent="VZ_Q3QNnJid0dUCNUunO-25"><mxGeometry x="0.5219" y="3" relative="1" as="geometry"><mxPoint as="offset"/></mxGeometry></mxCell><mxCell id="5" value="user" style="shape=umlActor;verticalLabelPosition=bottom;verticalAlign=top;html=1;outlineConnect=0;" vertex="1" parent="1"><mxGeometry x="-600" y="170" width="30" height="60" as="geometry"/></mxCell><mxCell id="wzuYN04QpGuq5Ow9cf39-12" value="manage post" style="ellipse;whiteSpace=wrap;html=1;" vertex="1" parent="1"><mxGeometry x="330" y="-20" width="120" height="80" as="geometry"/></mxCell><mxCell id="wzuYN04QpGuq5Ow9cf39-13" value="" style="endArrow=classic;html=1;rounded=1;dashed=1;exitX=0;exitY=0.5;exitDx=0;exitDy=0;" edge="1" parent="1" source="wzuYN04QpGuq5Ow9cf39-12" target="wzuYN04QpGuq5Ow9cf39-23"><mxGeometry width="50" height="50" relative="1" as="geometry"><mxPoint x="60" y="130" as="sourcePoint"/><mxPoint x="-100" y="120" as="targetPoint"/></mxGeometry></mxCell><mxCell id="VZ_Q3QNnJid0dUCNUunO-12" value="&amp;lt;&amp;lt;extend&amp;gt;&amp;gt;" style="edgeLabel;html=1;align=center;verticalAlign=middle;resizable=0;points=[];" vertex="1" connectable="0" parent="wzuYN04QpGuq5Ow9cf39-13"><mxGeometry x="0.2166" y="2" relative="1" as="geometry"><mxPoint as="offset"/></mxGeometry></mxCell><mxCell id="VZ_Q3QNnJid0dUCNUunO-10" style="edgeStyle=none;rounded=1;orthogonalLoop=1;jettySize=auto;html=1;entryX=0.25;entryY=0.988;entryDx=0;entryDy=0;entryPerimeter=0;dashed=1;endArrow=open;endFill=0;" edge="1" parent="1" source="wzuYN04QpGuq5Ow9cf39-14" target="wzuYN04QpGuq5Ow9cf39-12"><mxGeometry relative="1" as="geometry"/></mxCell><mxCell id="VZ_Q3QNnJid0dUCNUunO-16" value="&amp;lt;&amp;lt;extend&amp;gt;&amp;gt;" style="edgeLabel;html=1;align=center;verticalAlign=middle;resizable=0;points=[];" vertex="1" connectable="0" parent="VZ_Q3QNnJid0dUCNUunO-10"><mxGeometry x="-0.2041" relative="1" as="geometry"><mxPoint as="offset"/></mxGeometry></mxCell><mxCell id="wzuYN04QpGuq5Ow9cf39-14" value="manage comment" style="ellipse;whiteSpace=wrap;html=1;" vertex="1" parent="1"><mxGeometry x="120" y="150" width="120" height="80" as="geometry"/></mxCell><mxCell id="VZ_Q3QNnJid0dUCNUunO-11" style="edgeStyle=none;rounded=1;orthogonalLoop=1;jettySize=auto;html=1;dashed=1;endArrow=open;endFill=0;" edge="1" parent="1" source="wzuYN04QpGuq5Ow9cf39-15" target="wzuYN04QpGuq5Ow9cf39-12"><mxGeometry relative="1" as="geometry"/></mxCell><mxCell id="VZ_Q3QNnJid0dUCNUunO-17" value="&amp;lt;&amp;lt;extend&amp;gt;&amp;gt;" style="edgeLabel;html=1;align=center;verticalAlign=middle;resizable=0;points=[];" vertex="1" connectable="0" parent="VZ_Q3QNnJid0dUCNUunO-11"><mxGeometry x="-0.2474" y="3" relative="1" as="geometry"><mxPoint as="offset"/></mxGeometry></mxCell><mxCell id="wzuYN04QpGuq5Ow9cf39-15" value="manage like" style="ellipse;whiteSpace=wrap;html=1;" vertex="1" parent="1"><mxGeometry x="270" y="250" width="120" height="80" as="geometry"/></mxCell><mxCell id="wzuYN04QpGuq5Ow9cf39-16" value="search friend" style="ellipse;whiteSpace=wrap;html=1;" vertex="1" parent="1"><mxGeometry x="-450" y="-200" width="120" height="80" as="geometry"/></mxCell><mxCell id="wzuYN04QpGuq5Ow9cf39-18" value="" style="endArrow=classic;html=1;rounded=1;dashed=1;entryX=0;entryY=0.5;entryDx=0;entryDy=0;" edge="1" parent="1" source="wzuYN04QpGuq5Ow9cf39-23" target="wzuYN04QpGuq5Ow9cf39-14"><mxGeometry width="50" height="50" relative="1" as="geometry"><mxPoint x="60" y="150" as="sourcePoint"/><mxPoint x="191.8936760244469" y="120.8970194396378" as="targetPoint"/></mxGeometry></mxCell><mxCell id="VZ_Q3QNnJid0dUCNUunO-13" value="&amp;lt;&amp;lt;extend&amp;gt;&amp;gt;" style="edgeLabel;html=1;align=center;verticalAlign=middle;resizable=0;points=[];" vertex="1" connectable="0" parent="wzuYN04QpGuq5Ow9cf39-18"><mxGeometry x="0.5648" y="2" relative="1" as="geometry"><mxPoint as="offset"/></mxGeometry></mxCell><mxCell id="wzuYN04QpGuq5Ow9cf39-19" value="" style="endArrow=classic;html=1;rounded=1;dashed=1;entryX=0;entryY=0.5;entryDx=0;entryDy=0;exitX=0.975;exitY=0.688;exitDx=0;exitDy=0;exitPerimeter=0;" edge="1" parent="1" source="wzuYN04QpGuq5Ow9cf39-23" target="wzuYN04QpGuq5Ow9cf39-15"><mxGeometry width="50" height="50" relative="1" as="geometry"><mxPoint x="60" y="190" as="sourcePoint"/><mxPoint x="170" y="190" as="targetPoint"/></mxGeometry></mxCell><mxCell id="VZ_Q3QNnJid0dUCNUunO-15" value="&amp;lt;&amp;lt;extend&amp;gt;&amp;gt;" style="edgeLabel;html=1;align=center;verticalAlign=middle;resizable=0;points=[];" vertex="1" connectable="0" parent="wzuYN04QpGuq5Ow9cf39-19"><mxGeometry x="0.5476" y="-3" relative="1" as="geometry"><mxPoint as="offset"/></mxGeometry></mxCell><mxCell id="wzuYN04QpGuq5Ow9cf39-20" value="" style="endArrow=classic;html=1;rounded=1;dashed=1;entryX=0;entryY=0.5;entryDx=0;entryDy=0;" edge="1" parent="1" target="wzuYN04QpGuq5Ow9cf39-16"><mxGeometry width="50" height="50" relative="1" as="geometry"><mxPoint x="-580" y="190" as="sourcePoint"/><mxPoint x="170" y="290" as="targetPoint"/><Array as="points"><mxPoint x="-510" y="30"/></Array></mxGeometry></mxCell><mxCell id="VZ_Q3QNnJid0dUCNUunO-20" value="&amp;lt;&amp;lt;extend&amp;gt;&amp;gt;" style="edgeLabel;html=1;align=center;verticalAlign=middle;resizable=0;points=[];" vertex="1" connectable="0" parent="wzuYN04QpGuq5Ow9cf39-20"><mxGeometry x="0.1624" y="-3" relative="1" as="geometry"><mxPoint as="offset"/></mxGeometry></mxCell><mxCell id="VZ_Q3QNnJid0dUCNUunO-6" style="edgeStyle=none;rounded=1;orthogonalLoop=1;jettySize=auto;html=1;dashed=1;endArrow=none;endFill=0;" edge="1" parent="1" source="wzuYN04QpGuq5Ow9cf39-23" target="VZ_Q3QNnJid0dUCNUunO-5"><mxGeometry relative="1" as="geometry"/></mxCell><mxCell id="wzuYN04QpGuq5Ow9cf39-23" value="view new feeds" style="ellipse;whiteSpace=wrap;html=1;" vertex="1" parent="1"><mxGeometry x="-210" y="240" width="120" height="80" as="geometry"/></mxCell><mxCell id="wzuYN04QpGuq5Ow9cf39-25" style="edgeStyle=none;rounded=1;orthogonalLoop=1;jettySize=auto;html=1;exitX=0.5;exitY=0.5;exitDx=0;exitDy=0;exitPerimeter=0;dashed=1;entryX=0;entryY=0.5;entryDx=0;entryDy=0;" edge="1" parent="1" source="5" target="wzuYN04QpGuq5Ow9cf39-27"><mxGeometry relative="1" as="geometry"/></mxCell><mxCell id="VZ_Q3QNnJid0dUCNUunO-19" value="&amp;lt;&amp;lt;extend&amp;gt;&amp;gt;" style="edgeLabel;html=1;align=center;verticalAlign=middle;resizable=0;points=[];" vertex="1" connectable="0" parent="wzuYN04QpGuq5Ow9cf39-25"><mxGeometry x="-0.0683" y="1" relative="1" as="geometry"><mxPoint as="offset"/></mxGeometry></mxCell><mxCell id="VZ_Q3QNnJid0dUCNUunO-23" value="" style="edgeStyle=none;rounded=1;orthogonalLoop=1;jettySize=auto;html=1;dashed=1;endArrow=open;endFill=0;" edge="1" parent="1" source="wzuYN04QpGuq5Ow9cf39-27" target="VZ_Q3QNnJid0dUCNUunO-22"><mxGeometry relative="1" as="geometry"/></mxCell><mxCell id="wzuYN04QpGuq5Ow9cf39-27" value="search group" style="ellipse;whiteSpace=wrap;html=1;" vertex="1" parent="1"><mxGeometry x="-450" y="-50" width="120" height="80" as="geometry"/></mxCell><mxCell id="wzuYN04QpGuq5Ow9cf39-28" style="edgeStyle=none;rounded=1;orthogonalLoop=1;jettySize=auto;html=1;dashed=1;entryX=0;entryY=0.5;entryDx=0;entryDy=0;exitX=0.667;exitY=0.733;exitDx=0;exitDy=0;exitPerimeter=0;" edge="1" parent="1" source="5" target="wzuYN04QpGuq5Ow9cf39-23"><mxGeometry relative="1" as="geometry"><mxPoint x="-470" y="300" as="sourcePoint"/><mxPoint x="-285" y="260" as="targetPoint"/></mxGeometry></mxCell><mxCell id="VZ_Q3QNnJid0dUCNUunO-18" value="&amp;lt;&amp;lt;extend&amp;gt;&amp;gt;" style="edgeLabel;html=1;align=center;verticalAlign=middle;resizable=0;points=[];" vertex="1" connectable="0" parent="wzuYN04QpGuq5Ow9cf39-28"><mxGeometry x="-0.1685" relative="1" as="geometry"><mxPoint as="offset"/></mxGeometry></mxCell><mxCell id="wzuYN04QpGuq5Ow9cf39-29" style="edgeStyle=none;rounded=1;orthogonalLoop=1;jettySize=auto;html=1;exitX=1;exitY=0.5;exitDx=0;exitDy=0;dashed=1;entryX=0;entryY=0.5;entryDx=0;entryDy=0;" edge="1" parent="1" source="wzuYN04QpGuq5Ow9cf39-16" target="wzuYN04QpGuq5Ow9cf39-30"><mxGeometry relative="1" as="geometry"><mxPoint x="-180" y="-120" as="sourcePoint"/><mxPoint x="-170" y="-240" as="targetPoint"/></mxGeometry></mxCell><mxCell id="VZ_Q3QNnJid0dUCNUunO-21" value="&amp;lt;&amp;lt;extend&amp;gt;&amp;gt;" style="edgeLabel;html=1;align=center;verticalAlign=middle;resizable=0;points=[];" vertex="1" connectable="0" parent="wzuYN04QpGuq5Ow9cf39-29"><mxGeometry x="-0.3253" y="-2" relative="1" as="geometry"><mxPoint as="offset"/></mxGeometry></mxCell><mxCell id="wzuYN04QpGuq5Ow9cf39-30" value="manage friend" style="ellipse;whiteSpace=wrap;html=1;" vertex="1" parent="1"><mxGeometry x="-130" y="-350" width="120" height="80" as="geometry"/></mxCell><mxCell id="VZ_Q3QNnJid0dUCNUunO-5" value="&lt;div style=&quot;text-align: center&quot;&gt;&lt;span&gt;&lt;b&gt;&lt;u&gt;description&lt;/u&gt;&lt;/b&gt;&lt;/span&gt;&lt;/div&gt;&lt;div&gt;&lt;ul&gt;&lt;li&gt;New Feed include posts + top comment+ total of like&amp;nbsp;&lt;/li&gt;&lt;/ul&gt;&lt;/div&gt;" style="rounded=1;whiteSpace=wrap;html=1;align=left;" vertex="1" parent="1"><mxGeometry x="-320" y="40" width="200" height="120" as="geometry"/></mxCell><mxCell id="VZ_Q3QNnJid0dUCNUunO-22" value="join group,&lt;br&gt;out group" style="ellipse;whiteSpace=wrap;html=1;" vertex="1" parent="1"><mxGeometry x="-130" y="-230" width="120" height="80" as="geometry"/></mxCell><mxCell id="VZ_Q3QNnJid0dUCNUunO-27" value="" style="edgeStyle=none;rounded=1;orthogonalLoop=1;jettySize=auto;html=1;dashed=1;endArrow=open;endFill=0;" edge="1" parent="1" source="VZ_Q3QNnJid0dUCNUunO-24" target="VZ_Q3QNnJid0dUCNUunO-26"><mxGeometry relative="1" as="geometry"/></mxCell><mxCell id="VZ_Q3QNnJid0dUCNUunO-28" value="&amp;lt;&amp;lt;extend&amp;gt;&amp;gt;" style="edgeLabel;html=1;align=center;verticalAlign=middle;resizable=0;points=[];" vertex="1" connectable="0" parent="VZ_Q3QNnJid0dUCNUunO-27"><mxGeometry x="0.1895" y="-2" relative="1" as="geometry"><mxPoint as="offset"/></mxGeometry></mxCell><mxCell id="VZ_Q3QNnJid0dUCNUunO-24" value="view list accepting" style="ellipse;whiteSpace=wrap;html=1;align=center;" vertex="1" parent="1"><mxGeometry x="-450" y="-360" width="120" height="80" as="geometry"/></mxCell><mxCell id="VZ_Q3QNnJid0dUCNUunO-26" value="accepted" style="ellipse;whiteSpace=wrap;html=1;align=center;" vertex="1" parent="1"><mxGeometry x="-130" y="-500" width="120" height="80" as="geometry"/></mxCell><mxCell id="UYqHLTlSj3w6waL4Ha8J-9" style="edgeStyle=none;rounded=1;orthogonalLoop=1;jettySize=auto;html=1;entryX=1;entryY=0.5;entryDx=0;entryDy=0;dashed=1;endArrow=open;endFill=0;" edge="1" parent="1" source="UYqHLTlSj3w6waL4Ha8J-11" target="VZ_Q3QNnJid0dUCNUunO-22"><mxGeometry relative="1" as="geometry"/></mxCell><mxCell id="UYqHLTlSj3w6waL4Ha8J-10" style="edgeStyle=none;rounded=1;orthogonalLoop=1;jettySize=auto;html=1;entryX=0.5;entryY=1;entryDx=0;entryDy=0;dashed=1;endArrow=open;endFill=0;" edge="1" parent="1" source="UYqHLTlSj3w6waL4Ha8J-5" target="UYqHLTlSj3w6waL4Ha8J-7"><mxGeometry relative="1" as="geometry"/></mxCell><mxCell id="UYqHLTlSj3w6waL4Ha8J-5" value="admin group" style="shape=umlActor;verticalLabelPosition=bottom;verticalAlign=top;html=1;outlineConnect=0;" vertex="1" parent="1"><mxGeometry x="870" y="-280" width="30" height="60" as="geometry"/></mxCell><mxCell id="UYqHLTlSj3w6waL4Ha8J-16" style="edgeStyle=none;rounded=1;orthogonalLoop=1;jettySize=auto;html=1;entryX=1;entryY=0.5;entryDx=0;entryDy=0;dashed=1;endArrow=open;endFill=0;" edge="1" parent="1" source="UYqHLTlSj3w6waL4Ha8J-7" target="VZ_Q3QNnJid0dUCNUunO-26"><mxGeometry relative="1" as="geometry"/></mxCell><mxCell id="UYqHLTlSj3w6waL4Ha8J-7" value="show list accepting" style="ellipse;whiteSpace=wrap;html=1;align=center;" vertex="1" parent="1"><mxGeometry x="195" y="-380" width="120" height="80" as="geometry"/></mxCell><mxCell id="UYqHLTlSj3w6waL4Ha8J-12" value="" style="edgeStyle=none;rounded=1;orthogonalLoop=1;jettySize=auto;html=1;dashed=1;endArrow=block;endFill=0;entryX=0.75;entryY=0.1;entryDx=0;entryDy=0;entryPerimeter=0;exitX=0.5;exitY=0.5;exitDx=0;exitDy=0;exitPerimeter=0;" edge="1" parent="1" source="UYqHLTlSj3w6waL4Ha8J-5" target="UYqHLTlSj3w6waL4Ha8J-11"><mxGeometry relative="1" as="geometry"><mxPoint x="190" y="-180" as="sourcePoint"/></mxGeometry></mxCell><mxCell id="UYqHLTlSj3w6waL4Ha8J-21" style="edgeStyle=none;rounded=1;orthogonalLoop=1;jettySize=auto;html=1;entryX=0.658;entryY=0.013;entryDx=0;entryDy=0;entryPerimeter=0;dashed=1;endArrow=open;endFill=0;" edge="1" parent="1" source="UYqHLTlSj3w6waL4Ha8J-11" target="wzuYN04QpGuq5Ow9cf39-23"><mxGeometry relative="1" as="geometry"/></mxCell><mxCell id="UYqHLTlSj3w6waL4Ha8J-11" value="participant&lt;br&gt;" style="shape=umlActor;verticalLabelPosition=bottom;verticalAlign=top;html=1;outlineConnect=0;" vertex="1" parent="1"><mxGeometry x="270" y="-150" width="30" height="60" as="geometry"/></mxCell></root></mxGraphModel></diagram><diagram id="g3JSmLHLSzNNZx1DzTmB" name="login"><mxGraphModel dx="1277" dy="179" grid="1" gridSize="10" guides="1" tooltips="1" connect="1" arrows="1" fold="1" page="1" pageScale="1" pageWidth="850" pageHeight="1100" math="0" shadow="0"><root><mxCell id="VOFtLbLylE9ugDeYmoAz-0"/><mxCell id="VOFtLbLylE9ugDeYmoAz-1" parent="VOFtLbLylE9ugDeYmoAz-0"/><mxCell id="kuB02qm6K5Ue0ssFk5mE-0" value="" style="rounded=0;whiteSpace=wrap;html=1;" vertex="1" parent="VOFtLbLylE9ugDeYmoAz-1"><mxGeometry x="-20" y="190" width="120" height="60" as="geometry"/></mxCell><mxCell id="kuB02qm6K5Ue0ssFk5mE-1" value="" style="rounded=0;whiteSpace=wrap;html=1;" vertex="1" parent="VOFtLbLylE9ugDeYmoAz-1"><mxGeometry x="-20" y="190" width="120" height="60" as="geometry"/></mxCell></root></mxGraphModel></diagram></mxfile>